REM DIRINDEX 1\2,1\3,1\4
REM DIRNAME cjc151,folder01,folder02,folder03
TITLE ""
FILE "165 165_TOEFL_3900.mp3" MP3
  TRACK 01 AUDIO
    TITLE "2:cjc151_7190"
    INDEX 01 00:00:00
  TRACK 02 AUDIO
    TITLE "0:"
    INDEX 01 00:01:24
  TRACK 03 AUDIO
    TITLE "3:cjc151_7191"
    INDEX 01 00:03:02
  TRACK 04 AUDIO
    TITLE "0:"
    INDEX 01 00:06:45
  TRACK 05 AUDIO
    TITLE "2:cjc151_7192"
    INDEX 01 00:08:26
  TRACK 06 AUDIO
    TITLE "0:"
    INDEX 01 00:09:18
  TRACK 07 AUDIO
    TITLE "3:cjc151_7193"
    INDEX 01 00:10:72
  TRACK 08 AUDIO
    TITLE "0:"
    INDEX 01 00:14:04
  TRACK 09 AUDIO
    TITLE "2:cjc151_7194"
    INDEX 01 00:15:58
  TRACK 10 AUDIO
    TITLE "0:"
    INDEX 01 00:17:00
  TRACK 11 AUDIO
    TITLE "3:cjc151_7195"
    INDEX 01 00:18:54
  TRACK 12 AUDIO
    TITLE "0:"
    INDEX 01 00:22:54
  TRACK 13 AUDIO
    TITLE "2:cjc151_7196"
    INDEX 01 00:24:31
  TRACK 14 AUDIO
    TITLE "0:"
    INDEX 01 00:25:37
  TRACK 15 AUDIO
    TITLE "3:cjc151_7197"
    INDEX 01 00:27:12
  TRACK 16 AUDIO
    TITLE "0:"
    INDEX 01 00:31:12
  TRACK 17 AUDIO
    TITLE "2:cjc151_7198"
    INDEX 01 00:32:64
  TRACK 18 AUDIO
    TITLE "0:"
    INDEX 01 00:33:64
  TRACK 19 AUDIO
    TITLE "3:cjc151_7199"
    INDEX 01 00:35:55
  TRACK 20 AUDIO
    TITLE "0:"
    INDEX 01 00:40:52
  TRACK 21 AUDIO
    TITLE "2:cjc151_7200"
    INDEX 01 00:42:31
  TRACK 22 AUDIO
    TITLE "0:"
    INDEX 01 00:43:25
  TRACK 23 AUDIO
    TITLE "3:cjc151_7201"
    INDEX 01 00:45:00
  TRACK 24 AUDIO
    TITLE "0:"
    INDEX 01 00:50:11
  TRACK 25 AUDIO
    TITLE "2:cjc151_7202"
    INDEX 01 00:51:65
  TRACK 26 AUDIO
    TITLE "0:"
    INDEX 01 00:53:00
  TRACK 27 AUDIO
    TITLE "3:cjc151_7203"
    INDEX 01 00:54:54
  TRACK 28 AUDIO
    TITLE "0:"
    INDEX 01 00:59:49
  TRACK 29 AUDIO
    TITLE "2:cjc151_7204"
    INDEX 01 01:01:27
  TRACK 30 AUDIO
    TITLE "0:"
    INDEX 01 01:02:28
  TRACK 31 AUDIO
    TITLE "3:cjc151_7205"
    INDEX 01 01:04:01
  TRACK 32 AUDIO
    TITLE "0:"
    INDEX 01 01:08:44
  TRACK 33 AUDIO
    TITLE "2:cjc151_7206"
    INDEX 01 01:10:22
  TRACK 34 AUDIO
    TITLE "0:"
    INDEX 01 01:11:52
  TRACK 35 AUDIO
    TITLE "3:cjc151_7207"
    INDEX 01 01:13:30
  TRACK 36 AUDIO
    TITLE "0:"
    INDEX 01 01:18:13
  TRACK 37 AUDIO
    TITLE "2:cjc151_7208"
    INDEX 01 01:19:68
  TRACK 38 AUDIO
    TITLE "0:"
    INDEX 01 01:21:08
  TRACK 39 AUDIO
    TITLE "3:cjc151_7209"
    INDEX 01 01:22:60
  TRACK 40 AUDIO
    TITLE "0:"
    INDEX 01 01:27:26
  TRACK 41 AUDIO
    TITLE "2:cjc151_7210"
    INDEX 01 01:29:15
  TRACK 42 AUDIO
    TITLE "0:"
    INDEX 01 01:30:26
  TRACK 43 AUDIO
    TITLE "3:cjc151_7211"
    INDEX 01 01:32:04
  TRACK 44 AUDIO
    TITLE "0:"
    INDEX 01 01:37:21
  TRACK 45 AUDIO
    TITLE "2:cjc151_7212"
    INDEX 01 01:38:73
  TRACK 46 AUDIO
    TITLE "0:"
    INDEX 01 01:40:29
  TRACK 47 AUDIO
    TITLE "3:cjc151_7213"
    INDEX 01 01:42:06
  TRACK 48 AUDIO
    TITLE "0:"
    INDEX 01 01:45:44
  TRACK 49 AUDIO
    TITLE "2:cjc151_7214"
    INDEX 01 01:47:19
  TRACK 50 AUDIO
    TITLE "0:"
    INDEX 01 01:48:50
  TRACK 51 AUDIO
    TITLE "3:cjc151_7215"
    INDEX 01 01:50:27
  TRACK 52 AUDIO
    TITLE "0:"
    INDEX 01 01:53:20
  TRACK 53 AUDIO
    TITLE "2:cjc151_7216"
    INDEX 01 01:54:72
  TRACK 54 AUDIO
    TITLE "0:"
    INDEX 01 01:56:16
  TRACK 55 AUDIO
    TITLE "3:cjc151_7217"
    INDEX 01 01:58:07
  TRACK 56 AUDIO
    TITLE "0:"
    INDEX 01 02:03:18
  TRACK 57 AUDIO
    TITLE "2:cjc151_7218"
    INDEX 01 02:04:72
  TRACK 58 AUDIO
    TITLE "0:"
    INDEX 01 02:06:12
  TRACK 59 AUDIO
    TITLE "3:cjc151_7219"
    INDEX 01 02:07:73
  TRACK 60 AUDIO
    TITLE "0:"
    INDEX 01 02:13:42
  TRACK 61 AUDIO
    TITLE "2:cjc151_7220"
    INDEX 01 02:15:21
  TRACK 62 AUDIO
    TITLE "0:"
    INDEX 01 02:16:50
  TRACK 63 AUDIO
    TITLE "3:cjc151_7221"
    INDEX 01 02:18:29
  TRACK 64 AUDIO
    TITLE "0:"
    INDEX 01 02:22:25
  TRACK 65 AUDIO
    TITLE "2:cjc151_7222"
    INDEX 01 02:24:04
  TRACK 66 AUDIO
    TITLE "0:"
    INDEX 01 02:25:37
  TRACK 67 AUDIO
    TITLE "3:cjc151_7223"
    INDEX 01 02:27:16
  TRACK 68 AUDIO
    TITLE "0:"
    INDEX 01 02:31:26
  TRACK 69 AUDIO
    TITLE "2:cjc151_7224"
    INDEX 01 02:33:03
  TRACK 70 AUDIO
    TITLE "0:"
    INDEX 01 02:34:32
  TRACK 71 AUDIO
    TITLE "3:cjc151_7225"
    INDEX 01 02:36:12
  TRACK 72 AUDIO
    TITLE "0:"
    INDEX 01 02:39:53
  TRACK 73 AUDIO
    TITLE "2:cjc151_7226"
    INDEX 01 02:41:32
  TRACK 74 AUDIO
    TITLE "0:"
    INDEX 01 02:44:62
  TRACK 75 AUDIO
    TITLE "3:cjc151_7227"
    INDEX 01 02:46:39
  TRACK 76 AUDIO
    TITLE "0:"
    INDEX 01 02:50:53
  TRACK 77 AUDIO
    TITLE "2:cjc151_7228"
    INDEX 01 02:52:40
  TRACK 78 AUDIO
    TITLE "0:"
    INDEX 01 02:53:49
  TRACK 79 AUDIO
    TITLE "3:cjc151_7229"
    INDEX 01 02:55:36
  TRACK 80 AUDIO
    TITLE "0:"
    INDEX 01 02:58:39
  TRACK 81 AUDIO
    TITLE "2:cjc151_7230"
    INDEX 01 03:00:14
  TRACK 82 AUDIO
    TITLE "0:"
    INDEX 01 03:01:43
  TRACK 83 AUDIO
    TITLE "3:cjc151_7231"
    INDEX 01 03:03:30
  TRACK 84 AUDIO
    TITLE "0:"
    INDEX 01 03:06:71
  TRACK 85 AUDIO
    TITLE "2:cjc151_7232"
    INDEX 01 03:08:49
  TRACK 86 AUDIO
    TITLE "0:"
    INDEX 01 03:09:42
  TRACK 87 AUDIO
    TITLE "3:cjc151_7233"
    INDEX 01 03:11:27
  TRACK 88 AUDIO
    TITLE "0:"
    INDEX 01 03:15:63
